<?xml version="1.0" encoding="UTF-8"?>
<svg width="252px" height="50px" viewBox="0 0 252 50" version="1.1" xmlns="http://www.w3.org/2000/svg" xmlns:xlink="http://www.w3.org/1999/xlink">
    <!-- Generator: Sketch 52.6 (67491) - http://www.bohemiancoding.com/sketch -->
    <title>Artboard</title>
    <desc>Created with Sketch.</desc>
    <g id="Artboard" stroke="none" stroke-width="1" fill="none" fill-rule="evenodd">
        <g id="Group">
            <g id="DIY-logo-transparent-(2)" fill="#FACF3B" fill-rule="nonzero">
                <path d="M12.7739962,16.4122024 L12.7739962,12.7733298 L9.6358722,12.7733298 L9.6358722,18.8611259 L7.72173913,20.3548736 L7.72173913,32.6923077 L18.6086391,32.6923077 L29.2782609,32.6923077 L29.2782609,20.3548736 L18.6086391,12.0285336 L18.6086391,11.8589744 L18.5,11.943754 L18.3913609,11.8589744 L18.3913609,12.0285336 L12.7739962,16.4122024 Z M18.2194934,40.0641026 L0,40.0641026 L0,15.5191392 L18.4606225,0.0622652394 L18.4606225,0 L18.4978052,0.0311326196 L18.5349878,0 L18.5349878,0.0622652394 L36.9956105,15.5191392 L36.9956105,40.0641026 L30.1673659,40.0641026 L37,50 L18.2194934,40.0641026 Z" id="Combined-Shape"></path>
            </g>
            <path d="M64.36,11.256 L64.36,35 L59.464,35 L59.464,32.472 C58.8453302,33.3680045 58.0773379,34.045331 57.16,34.504 C56.2426621,34.962669 55.1973392,35.192 54.024,35.192 C52.4026586,35.192 50.9786728,34.8240037 49.752,34.088 C48.5253272,33.3519963 47.5760034,32.3120067 46.904,30.968 C46.2319966,29.6239933 45.896,28.0773421 45.896,26.328 C45.896,24.5999914 46.2266634,23.0746733 46.888,21.752 C47.5493366,20.4293267 48.4879939,19.405337 49.704,18.68 C50.9200061,17.954663 52.3173254,17.592 53.896,17.592 C56.3280122,17.592 58.1839936,18.4986576 59.464,20.312 L59.464,11.256 L64.36,11.256 Z M55.176,31.224 C56.434673,31.224 57.463996,30.7813378 58.264,29.896 C59.064004,29.0106622 59.464,27.864007 59.464,26.456 C59.464,25.047993 59.064004,23.9013378 58.264,23.016 C57.463996,22.1306622 56.434673,21.688 55.176,21.688 C53.8959936,21.688 52.856004,22.1306622 52.056,23.016 C51.255996,23.9013378 50.8453334,25.047993 50.824,26.456 C50.8453334,27.864007 51.255996,29.0106622 52.056,29.896 C52.856004,30.7813378 53.8959936,31.224 55.176,31.224 Z M78.1306666,17.624 C79.944009,17.624 81.5493263,17.986663 82.9466666,18.712 C84.3440069,19.437337 85.4266628,20.4613267 86.1946666,21.784 C86.9626704,23.1066733 87.3466666,24.6426579 87.3466666,26.392 C87.3466666,28.1200086 86.9626704,29.65066 86.1946666,30.984 C85.4266628,32.31734 84.3440069,33.3519963 82.9466666,34.088 C81.5493263,34.8240037 79.944009,35.192 78.1306666,35.192 C76.2959908,35.192 74.6800069,34.8240037 73.2826666,34.088 C71.8853263,33.3519963 70.8026704,32.31734 70.0346666,30.984 C69.2666628,29.65066 68.8826666,28.1200086 68.8826666,26.392 C68.8826666,24.6426579 69.2666628,23.1066733 70.0346666,21.784 C70.8026704,20.4613267 71.8853263,19.437337 73.2826666,18.712 C74.6800069,17.986663 76.2959908,17.624 78.1306666,17.624 Z M78.1306666,21.72 C76.8506602,21.72 75.8106706,22.157329 75.0106666,23.032 C74.2106626,23.906671 73.8106666,25.047993 73.8106666,26.456 C73.8106666,27.864007 74.2106626,29.005329 75.0106666,29.88 C75.8106706,30.754671 76.8506602,31.192 78.1306666,31.192 C79.3893396,31.192 80.4186626,30.754671 81.2186666,29.88 C82.0186706,29.005329 82.4186666,27.864007 82.4186666,26.456 C82.4186666,25.047993 82.0186706,23.906671 81.2186666,23.032 C80.4186626,22.157329 79.3893396,21.72 78.1306666,21.72 Z M91.6773332,17.784 L96.6053332,17.784 L96.6053332,35 L91.6773332,35 L91.6773332,17.784 Z M94.1093332,10.136 C94.8986705,10.136 95.5439974,10.3919974 96.0453332,10.904 C96.546669,11.4160026 96.7973332,12.0773293 96.7973332,12.888 C96.7973332,13.6986707 96.546669,14.3599974 96.0453332,14.872 C95.5439974,15.3840026 94.8986705,15.64 94.1093332,15.64 C93.3413294,15.64 92.706669,15.3786693 92.2053332,14.856 C91.7039974,14.3333307 91.4533332,13.6773373 91.4533332,12.888 C91.4533332,12.0773293 91.7039974,11.4160026 92.2053332,10.904 C92.706669,10.3919974 93.3413294,10.136 94.1093332,10.136 Z M113.064,34.04 C112.423997,34.4240019 111.71467,34.7173323 110.936,34.92 C110.157329,35.1226677 109.373337,35.224 108.584,35.224 C106.983992,35.224 105.682671,34.7653379 104.68,33.848 C103.677328,32.9306621 103.176,31.6186752 103.176,29.912 L103.176,21.944 L100.776,21.944 L100.776,18.552 L103.176,18.552 L103.176,13.816 L108.072,13.816 L108.072,18.552 L112.744,18.552 L112.744,21.976 L108.072,21.976 L108.072,29.08 C108.072,30.4026733 108.594661,31.064 109.64,31.064 C110.365337,31.064 111.165329,30.8506688 112.04,30.424 L113.064,34.04 Z M125.458666,36.92 C124.263994,39.928015 122.162681,41.432 119.154666,41.432 C118.237328,41.432 117.405337,41.298668 116.658666,41.032 C115.911996,40.765332 115.18667,40.3440029 114.482666,39.768 L116.562666,36.216 C117.309337,36.8346698 118.055996,37.144 118.802666,37.144 C119.848005,37.144 120.605331,36.6320051 121.074666,35.608 L121.554666,34.648 L114.418666,17.784 L119.506666,17.784 L124.018666,29.624 L128.082666,17.784 L133.010666,17.784 L125.458666,36.92 Z M143.421333,17.624 C145.234675,17.624 146.839993,17.986663 148.237333,18.712 C149.634673,19.437337 150.717329,20.4613267 151.485333,21.784 C152.253337,23.1066733 152.637333,24.6426579 152.637333,26.392 C152.637333,28.1200086 152.253337,29.65066 151.485333,30.984 C150.717329,32.31734 149.634673,33.3519963 148.237333,34.088 C146.839993,34.8240037 145.234675,35.192 143.421333,35.192 C141.586657,35.192 139.970673,34.8240037 138.573333,34.088 C137.175993,33.3519963 136.093337,32.31734 135.325333,30.984 C134.557329,29.65066 134.173333,28.1200086 134.173333,26.392 C134.173333,24.6426579 134.557329,23.1066733 135.325333,21.784 C136.093337,20.4613267 137.175993,19.437337 138.573333,18.712 C139.970673,17.986663 141.586657,17.624 143.421333,17.624 Z M143.421333,21.72 C142.141327,21.72 141.101337,22.157329 140.301333,23.032 C139.501329,23.906671 139.101333,25.047993 139.101333,26.456 C139.101333,27.864007 139.501329,29.005329 140.301333,29.88 C141.101337,30.754671 142.141327,31.192 143.421333,31.192 C144.680006,31.192 145.709329,30.754671 146.509333,29.88 C147.309337,29.005329 147.709333,27.864007 147.709333,26.456 C147.709333,25.047993 147.309337,23.906671 146.509333,23.032 C145.709329,22.157329 144.680006,21.72 143.421333,21.72 Z M173.32,17.784 L173.32,35 L168.424,35 L168.424,31.96 C167.25066,34.1146774 165.33068,35.192 162.664,35.192 C160.765323,35.192 159.256005,34.6000059 158.136,33.416 C157.015994,32.2319941 156.456,30.6266768 156.456,28.6 L156.456,17.784 L161.384,17.784 L161.384,27.192 C161.384,28.2800054 161.671997,29.1333302 162.248,29.752 C162.824002,30.3706698 163.613328,30.68 164.616,30.68 C165.789339,30.6586666 166.71733,30.2426707 167.4,29.432 C168.08267,28.6213293 168.424,27.5760064 168.424,26.296 L168.424,17.784 L173.32,17.784 Z M184.082666,20.888 C184.680003,19.821328 185.458661,19.0106694 186.418666,18.456 C187.378671,17.9013306 188.49866,17.6133334 189.778666,17.592 L189.778666,22.232 C189.607999,22.2106666 189.352001,22.2 189.010666,22.2 C187.495992,22.2 186.296004,22.6106626 185.410666,23.432 C184.525328,24.2533374 184.082666,25.3466598 184.082666,26.712 L184.082666,35 L179.154666,35 L179.154666,17.784 L184.082666,17.784 L184.082666,20.888 Z M204.381333,22.84 C203.442661,22.306664 202.514671,21.8960014 201.597333,21.608 C200.679995,21.3199986 199.85867,21.176 199.133333,21.176 C198.535997,21.176 198.056001,21.2826656 197.693333,21.496 C197.330664,21.7093344 197.149333,22.0293312 197.149333,22.456 C197.149333,22.9253357 197.394664,23.2879987 197.885333,23.544 C198.376002,23.8000013 199.175994,24.0879984 200.285333,24.408 C201.501339,24.7706685 202.503996,25.1279982 203.293333,25.48 C204.08267,25.8320018 204.76533,26.3546632 205.341333,27.048 C205.917336,27.7413368 206.205333,28.6533277 206.205333,29.784 C206.205333,31.4906752 205.549339,32.8186619 204.237333,33.768 C202.925326,34.7173381 201.245343,35.192 199.197333,35.192 C197.789326,35.192 196.434673,34.9840021 195.133333,34.568 C193.831993,34.1519979 192.701338,33.5600038 191.741333,32.792 L193.341333,29.464 C194.216004,30.1466701 195.191994,30.6746648 196.269333,31.048 C197.346672,31.4213352 198.365328,31.608 199.325333,31.608 C199.986669,31.608 200.514664,31.4960011 200.909333,31.272 C201.304001,31.0479989 201.501333,30.7120022 201.501333,30.264 C201.501333,29.7733309 201.250669,29.3893347 200.749333,29.112 C200.247997,28.8346653 199.442672,28.5360016 198.333333,28.216 C197.159994,27.874665 196.184003,27.533335 195.405333,27.192 C194.626662,26.850665 193.960002,26.3333368 193.405333,25.64 C192.850663,24.9466632 192.573333,24.0453389 192.573333,22.936 C192.573333,21.2293248 193.213326,19.9066714 194.493333,18.968 C195.773339,18.0293286 197.394656,17.56 199.357333,17.56 C200.530672,17.56 201.703994,17.7253317 202.877333,18.056 C204.050672,18.3866683 205.117328,18.8613302 206.077333,19.48 L204.381333,22.84 Z M217.959999,17.624 C220.733347,17.624 222.839992,18.423992 224.279999,20.024 C225.720007,21.624008 226.439999,23.853319 226.439999,26.712 C226.439999,27.2240026 226.429333,27.6186653 226.407999,27.896 L214.055999,27.896 C214.333334,28.9840054 214.866662,29.831997 215.655999,30.44 C216.445337,31.048003 217.394661,31.352 218.503999,31.352 C219.31467,31.352 220.093329,31.1973349 220.839999,30.888 C221.58667,30.5786651 222.258663,30.1253363 222.855999,29.528 L225.447999,32.152 C224.573328,33.1333382 223.512006,33.8853307 222.263999,34.408 C221.015993,34.9306693 219.624007,35.192 218.087999,35.192 C216.274657,35.192 214.690673,34.829337 213.335999,34.104 C211.981326,33.378663 210.936003,32.3546733 210.199999,31.032 C209.463996,29.7093267 209.095999,28.1840086 209.095999,26.456 C209.095999,24.7066579 209.469329,23.16534 210.215999,21.832 C210.96267,20.49866 212.007993,19.4640037 213.351999,18.728 C214.696006,17.9919963 216.231991,17.624 217.959999,17.624 Z M221.799999,24.984 C221.757333,23.8533277 221.39467,22.9466701 220.711999,22.264 C220.029329,21.5813299 219.122672,21.24 217.991999,21.24 C216.925327,21.24 216.03467,21.5759966 215.319999,22.248 C214.605329,22.9200034 214.152,23.8319942 213.959999,24.984 L221.799999,24.984 Z M230.898666,11.256 L235.826666,11.256 L235.826666,35 L230.898666,35 L230.898666,11.256 Z M249.693333,15.096 C249.095996,15.096 248.605335,15.266665 248.221333,15.608 C247.837331,15.949335 247.645333,16.4506634 247.645333,17.112 L247.645333,18.552 L251.709333,18.552 L251.709333,21.976 L247.645333,21.976 L247.645333,35 L242.749333,35 L242.749333,21.976 L240.445333,21.976 L240.445333,18.552 L242.749333,18.552 L242.749333,16.92 C242.749333,15.6826605 243.031996,14.6213378 243.597333,13.736 C244.162669,12.8506622 244.925328,12.178669 245.885333,11.72 C246.845337,11.261331 247.911993,11.032 249.085333,11.032 C250.194672,11.032 251.325327,11.2666643 252.477333,11.736 L251.741333,15.576 C251.421331,15.4479994 251.080001,15.3360005 250.717333,15.24 C250.354664,15.1439995 250.013334,15.096 249.693333,15.096 Z" id="doityourself" fill="#FFFFFF"></path>
        </g>
    </g>
</svg>